<?xml version="1.0" encoding="utf-8"?>
<!-- Generator: Adobe Illustrator 22.0.1, SVG Export Plug-In . SVG Version: 6.00 Build 0)  -->
<svg version="1.1" id="Layer_1" xmlns="http://www.w3.org/2000/svg" xmlns:xlink="http://www.w3.org/1999/xlink" x="0px" y="0px"
	 viewBox="0 0 183.9 220.2" style="enable-background:new 0 0 183.9 220.2;" xml:space="preserve">
<style type="text/css">
	.st0{fill:#F4D0A0;}
	.st1{fill:#D7AA75;}
	.st2{fill:#D01318;}
	.st3{fill:#57130B;}
	.st4{fill:#831A11;}
	.st5{fill:#FFFFFF;}
	.st6{fill:#F3C813;}
	.st7{fill:#70B52C;}
	.st8{fill:#5CBFC5;}
</style>
<g>
	<path class="st0" d="M89.3,24.3c50.2,0.1,86.4,48.5,87.5,94.6c1.1,48.5-36.6,99.5-87.8,99.5c-51.2,0-89-50.9-87.8-99.5
		C2.3,72.6,39,24.2,89.3,24.3z"/>
	<path class="st1" d="M123.4,209.9c-7.2,1.9-19.2,3.9-33.2,0.8c-7.1-1.6-22.3-4.9-33.3-18.7c-6.2-7.8-8.7-15.8-9.8-20.6
		c-4.7-0.3-10.9-1.1-17.8-3.4c-10.4-3.5-17.9-8.8-22.4-12.7c2.2,6.2,10.6,22.6,18.8,32.5c3.8,4.6,21.2,25.4,50.3,29.9
		C97.9,221.2,115.6,213.8,123.4,209.9z"/>
	<path class="st2" d="M169.5,108.7c-2.1-3.6-4.9-7.8-8.8-12.1c-20.9-22.9-50.9-23.1-70-23.3c-17.1-0.2-46.9-0.4-70.5,21.5
		c-1.6,1.5-3,2.9-4.3,4.3C7,107.3,1.3,119.9,1.3,134c0,24.7,17.5,44.8,39,44.8c14.8,0,27.7-9.5,34.3-23.5c0.4-0.5,0.8-1.1,1.2-1.7
		c1.3-1.6,3.5-4.3,6.9-6.1c1.7-0.9,6.1-3.3,10.8-1.7c2.9,1,4.6,3,7.6,6.6c1.2,1.5,2.2,3,3.1,4.3c0.6,1.2,1.3,2.3,2,3.5
		c0,0.1,0.1,0.2,0.1,0.2l0,0c7.1,11.2,18.6,18.4,31.5,18.4c20.9,0,39-21.4,39-44.8C176.8,125.1,174.1,116.2,169.5,108.7z"/>
	<path class="st3" d="M156.9,55.8c-4.6-5.7-9.3-10.5-13.9-14.6c4.5,1.1,10.1,3,16,6.3c12.3,6.8,19.7,16.1,23.5,21.8
		c-7.4-14.7-14.4-24.6-18.9-30.4c-2.8-3.6-5.9-7.2-10.9-10.3c-5.8-3.7-11.6-4.9-15.2-5.4c10.4-0.7,20.9-1.3,31.3-2
		c-5.9-3.3-23.9-12.5-45.5-7.7c-7.3,1.6-13.2,4.4-17.6,7.1c4.6-13.2,16.1-18.9,16.1-18.9C93.3,0.3,78.1,18.5,77,19.9
		c-0.1,0-0.1,0-0.2,0c-35.5-13.6-58.9,9.2-58.9,9.2c12.8-5.6,24.4-4.2,33.2-0.8C35.5,36.6,27,47.8,22.3,54.2
		c-22,29.8-21.4,64.2-20.5,77c0.1-4.8,0.9-12.8,5.4-20.9c2.9-5.1,6.1-8.4,8.6-10.9c8.1-8,16.4-11.8,20.4-13.5
		c8.9-3.9,17-5.3,22.9-5.7c-0.4,2.1-0.7,6.1,1.1,10.3c2.9,6.5,10.1,10.7,18.4,10.9c-4.8-1.8-8.1-6.4-8-11.5c0-4.9,3.1-9.4,7.7-11.2
		c-0.1,3.8,0.1,9.7,2.4,16.6c2.5,7.3,6.2,12.4,8.7,15.3C88,107.9,85,101,87,93c0.5-2.2,1.3-4.1,2.2-5.6c2.6,4.8,5.3,9.6,7.9,14.3
		c-0.6-5.8-0.4-14.5,5-19.8c10.9-10.6,35.3-0.4,47.6,8c17.9,12.3,24.4,30.6,26.6,38.2c1-9.5,1.4-25.6-4.8-44
		C167.4,71.8,161.6,62.3,156.9,55.8z"/>
	<path class="st4" d="M33.4,68.1c5.2-7.1,13.3-15.8,25.2-22.4c5.7-3.2,25.3-13,47.6-8c8.7,1.9,18.7,6.3,18.4,9.8
		c-0.3,2.7-7.6,2.3-16.1,7.5c-6.3,3.8-10.2,8.9-12.6,12.6c1.4-10.4,0.6-11.9,0-12c-1.7-0.5-5.8,9.2-6.3,10.3
		c-3.4,8.1-4,13.8-4.6,13.8c-0.5-0.1-0.7-5.3,0.6-27.5c-4.1,4.4-8.4,9.6-12.6,15.5c-1.7,2.3-3.2,4.6-4.6,6.9
		c2.5-9.1,2.3-18.3-2.3-21.8C60,48.1,45.1,52.5,33.4,68.1z"/>
	<circle class="st5" cx="136.6" cy="138.7" r="23.5"/>
	<circle class="st5" cx="39.1" cy="138.7" r="23.5"/>
	<g>
		<circle class="st6" cx="128.6" cy="138.7" r="4"/>
		<circle class="st7" cx="144.6" cy="138.7" r="4"/>
	</g>
	<circle class="st8" cx="136.6" cy="147.3" r="4"/>
	<circle class="st2" cx="136.6" cy="130.1" r="4"/>
	<rect x="35.4" y="126.4" class="st2" width="7" height="9"/>
	<rect x="35.4" y="142.4" class="st2" width="7" height="9"/>
	<rect x="26.5" y="135.3" class="st2" width="9" height="7"/>
	<rect x="42.5" y="135.3" class="st2" width="9" height="7"/>
	<path class="st1" d="M108.5,186.9c0,0-12,23.5-35.6,0H108.5z"/>
</g>
</svg>
